
<global>
amp_veltrack=0
ampeg_release=0.35
</global>

<group>
group_label=PP
xf_cccurve=gain
xfin_hicc1=64
xfout_hicc1=127
xfout_locc1=64

<region>
hikey=g#4
hivel=127
lokey=g4
loop_end=255215
loop_mode=loop_continuous
loop_start=90941
loop_xfade=41068
lovel=1
offset=274
pitch_keycenter=g#4
sample=Cellos_perf4th_PP_G#4.opus
</region>

<region>
hikey=g#3
hivel=127
lokey=g3
loop_end=234747
loop_mode=loop_continuous
loop_start=83647
loop_xfade=37775
lovel=1
offset=801
pitch_keycenter=g#3
sample=Cellos_perf4th_PP_G#3.opus
</region>

<region>
hikey=g#2
hivel=127
lokey=g2
loop_end=233208
loop_mode=loop_continuous
loop_start=83099
loop_xfade=37527
lovel=1
offset=1530
pitch_keycenter=g#2
sample=Cellos_perf4th_PP_G#2.opus
</region>

<region>
hikey=f#4
hivel=127
lokey=f4
loop_end=258754
loop_mode=loop_continuous
loop_start=92202
loop_xfade=41638
lovel=1
offset=18586
pitch_keycenter=f#4
sample=Cellos_perf4th_PP_F#4.opus
</region>

<region>
hikey=f#3
hivel=127
lokey=f3
loop_end=229674
loop_mode=loop_continuous
loop_start=81839
loop_xfade=36958
lovel=1
offset=1167
pitch_keycenter=f#3
sample=Cellos_perf4th_PP_F#3.opus
</region>

<region>
hikey=f#2
hivel=127
lokey=f2
loop_end=237738
loop_mode=loop_continuous
loop_start=84713
loop_xfade=38256
lovel=1
offset=85
pitch_keycenter=f#2
sample=Cellos_perf4th_PP_F#2.opus
</region>

<region>
hikey=e4
hivel=127
lokey=d#4
loop_end=249336
loop_mode=loop_continuous
loop_start=88846
loop_xfade=40122
lovel=1
offset=1907
pitch_keycenter=e4
sample=Cellos_perf4th_PP_E4.opus
</region>

<region>
hikey=e3
hivel=127
lokey=d#3
loop_end=268499
loop_mode=loop_continuous
loop_start=95674
loop_xfade=43206
lovel=1
offset=4396
pitch_keycenter=e3
sample=Cellos_perf4th_PP_E3.opus
</region>

<region>
hikey=e2
hivel=127
lokey=d#2
loop_end=243716
loop_mode=loop_continuous
loop_start=86843
loop_xfade=39218
lovel=1
offset=6073
pitch_keycenter=e2
sample=Cellos_perf4th_PP_E2.opus
</region>

<region>
hikey=C6
hivel=127
lokey=c#5
loop_end=280206
loop_mode=loop_continuous
loop_start=99846
loop_xfade=45090
lovel=1
offset=15480
pitch_keycenter=D5
sample=Cellos_perf4th_PP_D5.opus
</region>

<region>
hikey=d4
hivel=127
lokey=c#4
loop_end=242145
loop_mode=loop_continuous
loop_start=86283
loop_xfade=38965
lovel=1
offset=1076
pitch_keycenter=d4
sample=Cellos_perf4th_PP_D4.opus
</region>

<region>
hikey=d3
hivel=127
lokey=c#3
loop_end=228926
loop_mode=loop_continuous
loop_start=81573
loop_xfade=36838
lovel=1
offset=1104
pitch_keycenter=d3
sample=Cellos_perf4th_PP_D3.opus
</region>

<region>
hikey=d2
hivel=127
lokey=c#2
loop_end=236478
loop_mode=loop_continuous
loop_start=84264
loop_xfade=38053
lovel=1
offset=1534
pitch_keycenter=d2
sample=Cellos_perf4th_PP_D2.opus
</region>

<region>
hikey=c5
hivel=127
lokey=b4
loop_end=249245
loop_mode=loop_continuous
loop_start=88813
loop_xfade=40108
lovel=1
offset=19353
pitch_keycenter=c5
sample=Cellos_perf4th_PP_C5.opus
</region>

<region>
hikey=c4
hivel=127
lokey=b3
loop_end=280551
loop_mode=loop_continuous
loop_start=99969
loop_xfade=45145
lovel=1
offset=7765
pitch_keycenter=c4
sample=Cellos_perf4th_PP_C4.opus
</region>

<region>
hikey=c3
hivel=127
lokey=b2
loop_end=242604
loop_mode=loop_continuous
loop_start=86447
loop_xfade=39039
lovel=1
offset=4569
pitch_keycenter=c3
sample=Cellos_perf4th_PP_C3.opus
</region>

<region>
hivel=127
key=c2
loop_end=266986
loop_mode=loop_continuous
loop_start=95135
loop_xfade=42962
lovel=1
offset=1017
sample=Cellos_perf4th_PP_C2.opus
</region>

<region>
hikey=a#4
hivel=127
lokey=a4
loop_end=270591
loop_mode=loop_continuous
loop_start=96420
loop_xfade=43542
lovel=1
offset=106
pitch_keycenter=a#4
sample=Cellos_perf4th_PP_A#4.opus
</region>

<region>
hikey=a#3
hivel=127
lokey=a3
loop_end=230783
loop_mode=loop_continuous
loop_start=82235
loop_xfade=37137
lovel=1
offset=3161
pitch_keycenter=a#3
sample=Cellos_perf4th_PP_A#3.opus
</region>

<region>
hikey=a#2
hivel=127
lokey=a2
loop_end=229885
loop_mode=loop_continuous
loop_start=81915
loop_xfade=36992
lovel=1
offset=755
pitch_keycenter=a#2
sample=Cellos_perf4th_PP_A#2.opus
</region>
</group>

<group>
group_label=FF
xf_cccurve=gain
xfin_hicc1=127
xfin_locc1=64
xfout_hicc1=127
xfout_locc1=127

<region>
hikey=g#4
hivel=127
lokey=g4
loop_end=235531
loop_mode=loop_continuous
loop_start=83927
loop_xfade=37901
lovel=1
offset=582
pitch_keycenter=g#4
sample=Cellos_perf4th_FF_G#4.opus
</region>

<region>
hikey=g#3
hivel=127
lokey=g3
loop_end=235387
loop_mode=loop_continuous
loop_start=83875
loop_xfade=37878
lovel=1
pitch_keycenter=g#3
sample=Cellos_perf4th_FF_G#3.opus
</region>

<region>
hikey=g#2
hivel=127
lokey=g2
loop_end=225073
loop_mode=loop_continuous
loop_start=80200
loop_xfade=36218
lovel=1
offset=4702
pitch_keycenter=g#2
sample=Cellos_perf4th_FF_G#2.opus
</region>

<region>
hikey=f#4
hivel=127
lokey=f4
loop_end=232945
loop_mode=loop_continuous
loop_start=83005
loop_xfade=37485
lovel=1
offset=963
pitch_keycenter=f#4
sample=Cellos_perf4th_FF_F#4.opus
</region>

<region>
hikey=f#3
hivel=127
lokey=f3
loop_end=225979
loop_mode=loop_continuous
loop_start=80523
loop_xfade=36364
lovel=1
pitch_keycenter=f#3
sample=Cellos_perf4th_FF_F#3.opus
</region>

<region>
hikey=f#2
hivel=127
lokey=f2
loop_end=229933
loop_mode=loop_continuous
loop_start=81932
loop_xfade=37000
lovel=1
pitch_keycenter=f#2
sample=Cellos_perf4th_FF_F#2.opus
</region>

<region>
hikey=e4
hivel=127
lokey=d#4
loop_end=231694
loop_mode=loop_continuous
loop_start=82559
loop_xfade=37283
lovel=1
offset=169
pitch_keycenter=e4
sample=Cellos_perf4th_FF_E4.opus
</region>

<region>
hikey=e3
hivel=127
lokey=d#3
loop_end=233762
loop_mode=loop_continuous
loop_start=83296
loop_xfade=37616
lovel=1
pitch_keycenter=e3
sample=Cellos_perf4th_FF_E3.opus
</region>

<region>
hikey=e2
hivel=127
lokey=d#2
loop_end=234234
loop_mode=loop_continuous
loop_start=83465
loop_xfade=37692
lovel=1
offset=875
pitch_keycenter=e2
sample=Cellos_perf4th_FF_E2.opus
</region>

<region>
hikey=C6
hivel=127
lokey=c#5
loop_end=234508
loop_mode=loop_continuous
loop_start=83562
loop_xfade=37736
lovel=1
offset=434
pitch_keycenter=D5
sample=Cellos_perf4th_FF_D5.opus
</region>

<region>
hikey=d4
hivel=127
lokey=c#4
loop_end=243867
loop_mode=loop_continuous
loop_start=86897
loop_xfade=39242
lovel=1
pitch_keycenter=d4
sample=Cellos_perf4th_FF_D4.opus
</region>

<region>
hikey=d3
hivel=127
lokey=c#3
loop_end=230768
loop_mode=loop_continuous
loop_start=82229
loop_xfade=37134
lovel=1
offset=202
pitch_keycenter=d3
sample=Cellos_perf4th_FF_D3.opus
</region>

<region>
hikey=d2
hivel=127
lokey=c#2
loop_end=245665
loop_mode=loop_continuous
loop_start=87538
loop_xfade=39531
lovel=1
pitch_keycenter=d2
sample=Cellos_perf4th_FF_D2.opus
</region>

<region>
hikey=c5
hivel=127
lokey=b4
loop_end=235070
loop_mode=loop_continuous
loop_start=83762
loop_xfade=37827
lovel=1
pitch_keycenter=c5
sample=Cellos_perf4th_FF_C5.opus
</region>

<region>
hikey=c4
hivel=127
lokey=b3
loop_end=229022
loop_mode=loop_continuous
loop_start=81607
loop_xfade=36853
lovel=1
offset=1070
pitch_keycenter=c4
sample=Cellos_perf4th_FF_C4.opus
</region>

<region>
hikey=c3
hivel=127
lokey=b2
loop_end=229301
loop_mode=loop_continuous
loop_start=81707
loop_xfade=36898
lovel=1
offset=695
pitch_keycenter=c3
sample=Cellos_perf4th_FF_C3.opus
</region>

<region>
hivel=127
key=c2
loop_end=233094
loop_mode=loop_continuous
loop_start=83058
loop_xfade=37509
lovel=1
sample=Cellos_perf4th_FF_C2.opus
</region>

<region>
hikey=a#4
hivel=127
lokey=a4
loop_end=231200
loop_mode=loop_continuous
loop_start=82383
loop_xfade=37204
lovel=1
offset=198
pitch_keycenter=a#4
sample=Cellos_perf4th_FF_A#4.opus
</region>

<region>
hikey=a#3
hivel=127
lokey=a3
loop_end=235564
loop_mode=loop_continuous
loop_start=83938
loop_xfade=37906
lovel=1
offset=22
pitch_keycenter=a#3
sample=Cellos_perf4th_FF_A#3.opus
</region>

<region>
hikey=a#2
hivel=127
lokey=a2
loop_end=234205
loop_mode=loop_continuous
loop_start=83454
loop_xfade=37687
lovel=1
pitch_keycenter=a#2
sample=Cellos_perf4th_FF_A#2.opus
</region>
</group>